# Blender v2.69 (sub 0) OBJ File: 'GunAnimations.blend'
# www.blender.org
mtllib Crosshair.mtl
o Plane
v 0.195600 0.829998 -0.334207
v -0.195600 0.829998 -0.334207
v 0.103173 1.227426 -0.402283
v -0.103173 1.227426 -0.402283
v -0.195059 1.081636 -0.377311
v 0.195059 1.081636 -0.377311
v 0.167423 1.162643 -0.391186
v -0.167423 1.162643 -0.391186
v -0.000000 1.243649 -0.405062
v 0.180899 0.829998 -0.810551
v -0.180899 0.829998 -0.810551
v 0.100884 1.227426 -0.878627
v -0.100884 1.227426 -0.878627
v -0.190730 1.081636 -0.853655
v 0.190730 1.081636 -0.853655
v 0.163707 1.162643 -0.867530
v -0.163707 1.162643 -0.867530
v -0.000000 1.243649 -0.881406
vt -0.033712 0.655901
vt 1.048321 0.655895
vt 0.042939 0.883855
vt 0.507307 1.111805
vt 0.221144 1.066156
vt 0.971672 0.883850
vt 0.793469 1.066153
vt -0.035218 -0.052209
vt 1.049819 -0.052215
vt -0.016564 0.655907
vt 1.041456 0.655896
vt 0.058388 0.883860
vt 0.512452 1.111807
vt 0.232639 1.066159
vt 0.966509 0.883850
vt 0.792262 1.066153
vt 0.010694 -0.052204
vt 1.014182 -0.052215
vn 0.000000 0.168833 0.985645
vn 0.000000 0.168832 0.985645
vn -0.000002 0.168833 0.985645
vn 0.000002 0.168833 0.985645
usemtl None
s off
f 5/1/1 6/2/1 8/3/1
f 8/3/2 9/4/2 4/5/2
f 7/6/2 3/7/2 9/4/2
f 8/3/1 7/6/1 9/4/1
f 2/8/1 1/9/1 5/1/1
f 14/10/1 15/11/1 17/12/1
f 17/12/3 18/13/3 13/14/3
f 16/15/4 12/16/4 18/13/4
f 17/12/1 16/15/1 18/13/1
f 11/17/1 10/18/1 14/10/1
f 6/2/1 7/6/1 8/3/1
f 1/9/1 6/2/1 5/1/1
f 15/11/2 16/15/2 17/12/2
f 10/18/1 15/11/1 14/10/1
