# Blender v2.78 (sub 0) OBJ File: 'GunAnimationsExport3.blend'
# www.blender.org
mtllib GunHoloPlane.mtl
o HoloPlane_Plane
v -0.195462 0.861254 -0.304879
v 0.192451 0.861254 -0.304879
v -0.128959 1.214522 -0.304879
v 0.125948 1.214522 -0.304879
v -0.001505 0.861254 -0.304879
v -0.001505 1.240713 -0.304879
v -0.180810 1.123262 -0.304879
v 0.177800 1.123262 -0.304879
v -0.001505 1.123262 -0.304879
v -0.197373 0.992258 -0.304879
v 0.194362 0.992258 -0.304879
v -0.001505 0.992258 -0.304879
vt 0.5000 0.6844
vt 0.9576 0.6844
vt 0.8253 0.9173
vt 0.5000 0.9842
vt 0.0424 0.6844
vt 0.1747 0.9173
vt 0.0001 0.3501
vt 0.5000 0.3501
vt 0.9999 0.3501
vt 0.5000 0.0157
vt 0.9950 0.0157
vt 0.0050 0.0157
vn 0.0000 0.0000 1.0000
usemtl None
s off
f 9/1/1 8/2/1 4/3/1 6/4/1
f 7/5/1 9/1/1 6/4/1 3/6/1
f 10/7/1 12/8/1 9/1/1 7/5/1
f 12/8/1 11/9/1 8/2/1 9/1/1
f 5/10/1 2/11/1 11/9/1 12/8/1
f 1/12/1 5/10/1 12/8/1 10/7/1
