# Blender v2.69 (sub 0) OBJ File: 'RoofRotatingLight.blend'
# www.blender.org
o Cube.004_Cube.003
v 0.052905 1.485281 0.021761
v 0.021353 1.480857 -0.050974
v 0.039417 1.482209 -0.038955
v 0.039555 1.486742 0.039576
v 0.021353 1.486863 0.051550
v 0.051550 1.483964 -0.020691
v 0.000000 1.497006 -0.000000
v 0.055797 1.497006 -0.000000
v 0.051550 1.497006 -0.021353
v 0.021353 1.497006 0.051550
v 0.039455 1.497006 0.039455
v 0.039455 1.497006 -0.039455
v 0.021353 1.497006 -0.051550
v 0.051550 1.497006 0.021353
v 0.021353 1.459412 -0.047014
v 0.039417 1.463345 -0.035576
v 0.051550 1.469028 -0.018337
v 0.000000 1.495471 0.010523
v 0.021353 1.438891 -0.036541
v 0.039417 1.446834 -0.026821
v 0.049213 1.446413 -0.004714
v 0.020940 1.424723 -0.015821
v 0.037875 1.433845 -0.010920
v 0.019815 1.414783 0.004188
v 0.036709 1.424517 0.006382
v 0.048995 1.439891 0.009960
v 0.054843 1.458293 0.013917
v 0.017177 1.421516 0.006416
v 0.032015 1.430013 0.008418
v 0.043146 1.443700 0.011401
v 0.048605 1.459096 0.014784
v 0.047142 1.483465 0.022532
v 0.036926 1.486304 0.035607
v 0.019521 1.486460 0.047451
v 0.029075 1.438902 -0.003717
v 0.029286 1.453885 -0.014002
v 0.032324 1.471985 -0.013343
v 0.030033 1.492001 -0.002399
v 0.020773 1.495471 0.010523
v -0.052905 1.485281 0.021761
v -0.021353 1.480857 -0.050974
v -0.039417 1.482209 -0.038955
v -0.039555 1.486742 0.039576
v -0.021353 1.486863 0.051550
v -0.051550 1.483964 -0.020691
v 0.000000 1.486961 0.056124
v 0.000000 1.480162 -0.055164
v 0.000000 1.497006 -0.055797
v -0.055797 1.497006 -0.000000
v 0.000000 1.497006 0.055797
v -0.051550 1.497006 -0.021353
v -0.021353 1.497006 0.051550
v -0.039455 1.497006 0.039455
v -0.039455 1.497006 -0.039455
v -0.021353 1.497006 -0.051550
v -0.051550 1.497006 0.021353
v -0.021353 1.459412 -0.047014
v -0.039417 1.463345 -0.035576
v -0.051550 1.469028 -0.018337
v 0.000000 1.457823 -0.050953
v -0.021353 1.438891 -0.036541
v -0.039417 1.446834 -0.026821
v -0.049213 1.446413 -0.004714
v 0.000000 1.435927 -0.039804
v -0.020940 1.424723 -0.015821
v -0.037875 1.433845 -0.010920
v 0.000000 1.421204 -0.017226
v -0.019815 1.414783 0.004188
v -0.036709 1.424517 0.006382
v -0.048995 1.439891 0.009960
v -0.054843 1.458293 0.013917
v 0.000000 1.410738 0.003606
v -0.017177 1.421516 0.006416
v -0.032015 1.430013 0.008418
v 0.000000 1.418371 0.005695
v -0.043146 1.443700 0.011401
v -0.048605 1.459096 0.014784
v -0.047142 1.483465 0.022532
v -0.036926 1.486304 0.035607
v -0.019521 1.486460 0.047451
v 0.000000 1.486393 0.051505
v -0.029075 1.438902 -0.003717
v 0.000000 1.432302 -0.010153
v -0.029286 1.453885 -0.014002
v 0.000000 1.457839 -0.025873
v -0.032324 1.471985 -0.013343
v 0.000000 1.476926 -0.024284
v 0.000000 1.493490 -0.013143
v -0.030033 1.492001 -0.002399
v -0.020773 1.495471 0.010523
v 0.000000 1.496050 0.026235
vt 0.814799 0.446009
vt 0.786955 0.465226
vt 0.758872 0.433130
vt 0.907726 0.711627
vt 0.886845 0.718324
vt 0.872207 0.673551
vt 0.922102 0.756448
vt 0.901456 0.763220
vt 0.854206 0.531263
vt 0.828853 0.541090
vt 0.809969 0.501227
vt 0.754938 0.489841
vt 0.729002 0.462663
vt 0.778836 0.520064
vt 0.801605 0.554052
vt 0.781926 0.567876
vt 0.753468 0.542160
vt 0.725990 0.515950
vt 0.605145 0.428794
vt 0.573419 0.440951
vt 0.568989 0.397403
vt 0.699724 0.491610
vt 0.675684 0.465069
vt 0.666352 0.524604
vt 0.620135 0.461318
vt 0.585622 0.483972
vt 0.697190 0.550635
vt 0.667413 0.585502
vt 0.632880 0.557698
vt 0.624397 0.408546
vt 0.649788 0.437294
vt 0.729109 0.571537
vt 0.706064 0.605791
vt 0.068272 0.337545
vt 0.086409 0.363834
vt 0.053654 0.363560
vt 0.822208 0.591359
vt 0.792438 0.623406
vt 0.666106 0.734019
vt 0.658763 0.746500
vt 0.631440 0.719207
vt 0.627863 0.733393
vt 0.592636 0.715039
vt 0.713445 0.792779
vt 0.702072 0.797504
vt 0.694474 0.759883
vt 0.684853 0.769737
vt 0.761460 0.586896
vt 0.566590 0.894026
vt 0.607711 0.895031
vt 0.608657 0.904436
vt 0.690740 0.875498
vt 0.687035 0.866765
vt 0.711932 0.846393
vt 0.164741 0.286602
vt 0.181171 0.320358
vt 0.151565 0.335377
vt 0.012630 0.390144
vt 0.051995 0.393827
vt 0.056423 0.421332
vt 0.097444 0.386112
vt 0.106061 0.411388
vt 0.099632 0.494089
vt 0.076122 0.475713
vt 0.106244 0.462843
vt 0.854614 0.628639
vt 0.827258 0.627522
vt 0.135436 0.405504
vt 0.136869 0.462701
vt 0.107845 0.438033
vt 0.062932 0.448420
vt 0.028024 0.466983
vt 0.843906 0.583824
vt 0.867292 0.576297
vt 0.013343 0.429963
vt 0.723794 0.847522
vt 0.723932 0.822152
vt 0.795839 0.598264
vt 0.748943 0.618482
vt 0.526739 0.295999
vt 0.571483 0.310617
vt 0.564464 0.335169
vt 0.705221 0.353851
vt 0.746631 0.377060
vt 0.727098 0.404684
vt 0.784551 0.407743
vt 0.482083 0.281113
vt 0.519753 0.317065
vt 0.437428 0.266226
vt 0.430421 0.286794
vt 0.661830 0.336685
vt 0.691361 0.381262
vt 0.702121 0.436419
vt 0.651715 0.361925
vt 0.672172 0.412178
vt 0.638444 0.389024
vt 0.640674 0.493472
vt 0.605470 0.522851
vt 0.609155 0.346387
vt 0.522888 0.745808
vt 0.554924 0.725392
vt 0.532313 0.757060
vt 0.560788 0.738868
vt 0.485271 0.812784
vt 0.498640 0.776439
vt 0.497513 0.815508
vt 0.509952 0.784698
vt 0.594169 0.394287
vt 0.565269 0.362536
vt 0.564928 0.902852
vt 0.522972 0.891281
vt 0.525116 0.881984
vt 0.484919 0.869432
vt 0.496556 0.866144
vt 0.651372 0.894150
vt 0.648081 0.885752
vt 0.052311 0.496674
vt 0.480133 0.844104
vt 0.023605 0.353388
vt 0.173543 0.397870
vt 0.177332 0.464006
vt 0.175335 0.501745
vt 0.134287 0.499004
vt 0.837535 0.487681
vt 0.893350 0.666806
vt 0.616948 0.323088
vt 0.879244 0.621900
vt 0.114725 0.352168
vt 0.085751 0.519069
vt 0.104933 0.281126
vt 0.593879 0.730361
vt 0.135184 0.301319
vt 0.475148 0.301917
vt 0.492183 0.842688
vt 0.122614 0.530231
vt 0.075559 0.295339
vt 0.000000 0.000000
vt 0.165519 0.253012
vn 0.193536 -0.034978 -0.980470
vn 0.549586 0.000000 0.835437
vn 0.194990 0.031842 0.980288
vn 0.833862 -0.027968 -0.551264
vn 0.191312 -0.178227 -0.965212
vn 0.551795 -0.147017 -0.820919
vn 0.827973 -0.087317 -0.553928
vn 0.862904 -0.323189 -0.388518
vn 0.563074 -0.387138 -0.730117
vn -0.953828 -0.279483 -0.110005
vn 0.195361 -0.445807 -0.873551
vn -0.195868 -0.821412 -0.535647
vn -0.777260 -0.574221 -0.257173
vn 0.192842 -0.883065 -0.427794
vn -0.774690 -0.524462 -0.353264
vn 0.497737 -0.777023 -0.385347
vn -0.732055 0.392543 0.556781
vn 0.965995 -0.199143 -0.164911
vn 0.053263 -0.306601 0.950347
vn 0.033659 -0.302050 0.952698
vn 0.103178 -0.240370 0.965182
vn 0.059965 -0.271452 0.960582
vn 0.774690 -0.524462 -0.353264
vn -0.028733 -0.992110 0.122030
vn -0.072767 -0.984921 0.156957
vn -0.421674 -0.904816 -0.059147
vn -0.301287 0.625597 0.719621
vn -0.248692 0.550544 0.796902
vn 0.732055 0.392543 0.556781
vn 0.993245 0.091922 -0.070816
vn 0.317964 0.018850 0.947915
vn -0.558364 -0.668203 -0.491665
vn 0.301287 0.625597 0.719621
vn 0.960383 -0.277812 -0.022035
vn -0.163020 0.741015 0.651400
vn 0.207773 -0.259228 0.943202
vn 0.953828 -0.279483 -0.110005
vn 0.174002 -0.814489 -0.553472
vn -0.825986 0.114670 0.551904
vn -0.555328 -0.029650 -0.831103
vn -0.194957 -0.036854 -0.980119
vn -0.555505 0.015251 0.831373
vn -0.194996 0.031844 0.980287
vn -0.831293 -0.020876 -0.555443
vn -0.383433 -0.076659 0.920382
vn -0.195048 -0.181688 -0.963818
vn -0.555401 -0.150998 -0.817759
vn -0.833280 -0.097458 -0.544193
vn -0.827673 -0.262909 -0.495818
vn -0.552549 -0.378878 -0.742389
vn -0.194375 -0.445095 -0.874133
vn 0.558364 -0.668203 -0.491666
vn -0.177418 -0.879406 -0.441777
vn 0.827673 -0.262909 -0.495818
vn -0.520932 -0.775790 -0.356063
vn 0.999484 -0.005004 -0.031741
vn 0.784658 -0.570746 -0.241993
vn -0.999484 -0.005004 -0.031741
vn -0.053263 -0.306601 0.950347
vn -0.033659 -0.302050 0.952698
vn -0.103178 -0.240370 0.965182
vn -0.059965 -0.271452 0.960582
vn -0.965995 -0.199143 -0.164911
vn -0.993245 0.091922 -0.070815
vn -0.045793 -0.995768 0.079678
vn -0.323215 -0.892210 0.315427
vn 0.044327 -0.995952 0.078202
vn 0.163020 0.741015 0.651400
vn 0.458417 0.660368 0.594783
vn 0.248692 0.550543 0.796903
vn -0.207773 -0.259228 0.943202
vn -0.458417 0.660368 0.594783
vn -0.308672 -0.530847 0.789255
vn 0.849362 0.123865 0.513071
vn -0.715700 0.469335 0.517202
vn 0.014987 -0.995705 0.091359
vn 0.308672 -0.530847 0.789255
vn 0.838183 -0.210308 0.503209
vn 0.323215 -0.892210 0.315426
vn 0.072768 -0.984921 0.156957
vn 0.555224 -0.029497 -0.831177
vn 0.800732 0.014888 0.598838
vn -0.960383 -0.277812 -0.022035
vn 0.000000 1.000000 0.000003
vn 0.000000 1.000000 0.000000
vn 0.000000 1.000000 0.000013
vn 0.000000 1.000000 -0.000006
vn 0.000000 1.000000 0.000006
vn -0.862903 -0.323188 -0.388521
vn -0.980737 -0.009897 -0.195082
vn 0.973785 0.119263 0.193698
vn 0.980737 -0.009897 -0.195082
vn -0.973785 0.119263 0.193698
vn -0.849361 0.123865 0.513072
vn 0.715700 0.469335 0.517202
vn -0.878441 -0.302726 0.369729
vn 0.194957 -0.036854 -0.980119
vn 0.555504 0.015251 0.831374
vn 0.209442 0.000000 0.977821
vn 0.831294 -0.020876 -0.555440
vn 0.195045 -0.181686 -0.963819
vn 0.555401 -0.150998 -0.817759
vn 0.833280 -0.097458 -0.544193
vn 0.552549 -0.378878 -0.742389
vn 0.194375 -0.445095 -0.874133
vn -0.174002 -0.814489 -0.553472
vn -0.784658 -0.570746 -0.241993
vn 0.177417 -0.879403 -0.441784
vn 0.520931 -0.775790 -0.356063
vn 0.042490 -0.298813 0.953365
vn 0.007838 -0.263960 0.964502
vn 0.081205 -0.241288 0.967050
vn 0.087477 -0.279526 0.956145
vn -0.014987 -0.995705 0.091359
vn -0.355207 -0.931755 -0.075242
vn -0.293909 0.501079 0.813964
vn 0.383433 -0.076659 0.920382
vn -0.519903 -0.709930 -0.475078
vn 0.093900 -0.296530 0.950396
vn 0.195869 -0.821415 -0.535642
vn -0.800732 0.014888 0.598838
vn -0.555224 -0.029497 -0.831177
vn -0.193536 -0.034978 -0.980470
vn -0.549586 0.000000 0.835437
vn -0.209442 0.000000 0.977821
vn -0.833862 -0.027968 -0.551264
vn -0.317962 0.018850 0.947916
vn -0.191310 -0.178226 -0.965213
vn -0.551795 -0.147017 -0.820919
vn -0.827973 -0.087317 -0.553928
vn -0.563074 -0.387138 -0.730117
vn -0.195360 -0.445807 -0.873551
vn 0.519903 -0.709930 -0.475078
vn -0.192842 -0.883065 -0.427794
vn -0.497737 -0.777023 -0.385347
vn 0.777260 -0.574221 -0.257170
vn -0.042490 -0.298815 0.953365
vn -0.007838 -0.263967 0.964500
vn -0.081205 -0.241288 0.967050
vn -0.087476 -0.279522 0.956146
vn -0.044327 -0.995952 0.078202
vn 0.045793 -0.995768 0.079678
vn 0.293909 0.501079 0.813964
vn -0.093899 -0.296529 0.950396
vn -0.346185 -0.480292 0.805901
vn 0.817514 0.168874 0.550593
vn 0.028733 -0.992110 0.122030
vn 0.346185 -0.480292 0.805901
vn 0.878440 -0.302726 0.369730
vn 0.555328 -0.029650 -0.831103
vn 0.825987 0.114670 0.551902
vn -0.817514 0.168874 0.550593
vn -0.838183 -0.210308 0.503209
vn 0.000000 -0.965767 0.259409
vn -0.184570 -0.948148 -0.258744
vn 0.000000 -0.939241 -0.343259
vn 0.000000 -0.939239 -0.343265
vn -0.070758 -0.931781 -0.356060
vn 0.070758 -0.931781 -0.356060
vn 0.184570 -0.948148 -0.258744
vn -0.079011 -0.993399 0.083163
vn 0.421674 -0.904816 -0.059147
vn 0.079011 -0.993399 0.083163
vn 0.263439 -0.964023 0.035493
vn -0.263439 -0.964023 0.035493
vn 0.355207 -0.931755 -0.075242
s off
f 13/1/1 2/2/1 47/3/1
f 10/4/2 5/5/2 4/6/2
f 50/7/3 46/8/3 10/4/3
f 9/9/4 6/10/4 3/11/4
f 2/2/5 15/12/5 60/13/5
f 3/11/6 16/14/6 15/12/6
f 6/10/7 17/15/7 16/14/7
f 17/15/8 21/16/8 20/17/8
f 16/14/9 20/17/9 19/18/9
f 63/19/10 70/20/10 71/21/10
f 15/12/11 19/18/11 64/22/11
f 61/23/12 64/22/12 67/24/12
f 63/19/13 66/25/13 69/26/13
f 22/27/14 24/28/14 72/29/14
f 63/30/15 62/31/15 66/25/15
f 23/32/16 25/33/16 24/28/16
f 30/34/17 36/35/17 35/36/17
f 17/37/18 27/38/18 21/16/18
f 25/39/19 29/40/19 24/41/19
f 24/41/20 28/42/20 72/43/20
f 27/44/21 31/45/21 26/46/21
f 26/46/22 30/47/22 25/39/22
f 21/48/23 23/32/23 20/17/23
f 80/49/24 81/50/24 46/51/24
f 4/52/25 33/53/25 32/54/25
f 33/55/26 39/56/26 38/57/26
f 28/58/27 35/59/27 83/60/27
f 35/36/28 36/61/28 85/62/28
f 76/63/29 82/64/29 84/65/29
f 1/66/30 27/67/30 17/37/30
f 87/68/31 86/69/31 84/70/31
f 66/25/32 62/31/32 61/23/32
f 82/71/33 73/72/33 83/60/33
f 1/66/34 6/73/34 8/74/34
f 75/75/35 28/58/35 83/60/35
f 1/76/36 32/54/36 27/77/36
f 21/78/37 27/38/37 26/79/37
f 19/18/38 22/27/38 67/24/38
f 53/80/39 56/81/39 40/82/39
f 54/83/40 55/84/40 41/85/40
f 55/84/41 48/86/41 47/3/41
f 52/87/42 53/80/42 43/88/42
f 50/89/43 52/87/43 46/90/43
f 51/91/44 54/83/44 42/92/44
f 85/62/45 36/61/45 87/68/45
f 41/85/46 47/3/46 60/13/46
f 42/92/47 41/85/47 57/93/47
f 45/94/48 42/92/48 58/95/48
f 59/96/49 58/95/49 62/31/49
f 58/95/50 57/93/50 61/23/50
f 57/93/51 60/13/51 64/22/51
f 19/18/52 20/17/52 23/32/52
f 65/97/53 67/24/53 72/29/53
f 16/14/54 17/15/54 20/17/54
f 66/25/55 65/97/55 68/98/55
f 6/73/56 1/66/56 17/37/56
f 21/48/57 26/79/57 25/33/57
f 45/99/58 59/96/58 40/82/58
f 69/100/59 68/101/59 74/102/59
f 68/101/60 72/43/60 73/103/60
f 71/104/61 70/105/61 77/106/61
f 70/105/62 69/100/62 76/107/62
f 63/108/63 71/109/63 59/96/63
f 59/96/64 71/109/64 40/82/64
f 44/110/65 43/111/65 79/112/65
f 43/111/66 40/113/66 78/114/66
f 5/115/67 34/116/67 33/53/67
f 73/72/68 75/75/68 83/60/68
f 73/72/69 82/64/69 74/117/69
f 85/62/70 84/65/70 82/71/70
f 40/113/71 71/118/71 78/114/71
f 28/58/72 29/119/72 35/59/72
f 38/57/73 88/120/73 87/68/73
f 76/63/74 84/65/74 86/69/74
f 30/34/75 35/36/75 29/119/75
f 34/116/76 5/115/76 46/51/76
f 88/120/77 89/121/77 87/68/77
f 78/122/78 77/123/78 89/121/78
f 1/76/79 4/52/79 32/54/79
f 79/112/80 43/111/80 78/114/80
f 12/124/81 3/11/81 2/2/81
f 11/125/82 4/6/82 1/66/82
f 49/126/83 45/99/83 40/82/83
f 52/87/84 50/89/84 7/87/84
f 54/83/85 51/91/85 7/83/85
f 8/74/86 9/9/86 7/74/86
f 56/81/85 53/80/85 7/81/85
f 10/4/85 11/125/85 7/4/85
f 49/126/85 56/81/85 7/126/85
f 12/124/85 13/1/85 7/124/85
f 13/1/85 48/86/85 7/1/85
f 51/91/85 49/126/85 7/91/85
f 53/80/87 52/87/87 7/80/87
f 55/84/88 54/83/88 7/84/88
f 50/7/85 10/4/85 7/7/85
f 48/86/85 55/84/85 7/86/85
f 9/9/85 12/124/85 7/9/85
f 11/125/85 14/127/85 7/125/85
f 14/127/85 8/74/85 7/127/85
f 63/30/89 59/96/89 62/31/89
f 49/126/90 51/91/90 45/99/90
f 14/127/91 1/66/91 8/74/91
f 8/74/92 6/10/92 9/9/92
f 56/81/93 49/126/93 40/82/93
f 36/35/94 30/34/94 37/128/94
f 76/129/95 74/117/95 82/64/95
f 37/128/96 31/130/96 38/57/96
f 48/86/97 13/1/97 47/3/97
f 11/125/98 10/4/98 4/6/98
f 46/8/99 5/5/99 10/4/99
f 12/124/100 9/9/100 3/11/100
f 47/3/101 2/2/101 60/13/101
f 2/2/102 3/11/102 15/12/102
f 3/11/103 6/10/103 16/14/103
f 15/12/104 16/14/104 19/18/104
f 60/13/105 15/12/105 64/22/105
f 65/97/106 61/23/106 67/24/106
f 70/20/107 63/19/107 69/26/107
f 67/24/108 22/27/108 72/29/108
f 22/27/109 23/32/109 24/28/109
f 29/40/110 28/42/110 24/41/110
f 28/42/111 75/131/111 72/43/111
f 31/45/112 30/47/112 26/46/112
f 30/47/113 29/40/113 25/39/113
f 44/110/114 80/49/114 46/51/114
f 32/132/115 33/55/115 38/57/115
f 83/60/116 35/36/116 85/62/116
f 85/62/117 87/68/117 84/70/117
f 65/97/118 66/25/118 61/23/118
f 32/54/119 31/45/119 27/77/119
f 64/22/120 19/18/120 67/24/120
f 43/88/121 53/80/121 40/82/121
f 42/92/122 54/83/122 41/85/122
f 41/85/123 55/84/123 47/3/123
f 44/133/124 52/87/124 43/88/124
f 52/87/125 44/133/125 46/90/125
f 45/94/126 51/91/126 42/92/126
f 36/61/127 37/128/127 87/68/127
f 57/93/128 41/85/128 60/13/128
f 58/95/129 42/92/129 57/93/129
f 59/96/130 45/94/130 58/95/130
f 62/31/131 58/95/131 61/23/131
f 61/23/132 57/93/132 64/22/132
f 22/27/133 19/18/133 23/32/133
f 68/98/134 65/97/134 72/29/134
f 69/26/135 66/25/135 68/98/135
f 23/32/136 21/48/136 25/33/136
f 68/101/137 73/103/137 74/102/137
f 72/43/138 75/131/138 73/103/138
f 70/105/139 76/107/139 77/106/139
f 69/100/140 74/102/140 76/107/140
f 80/49/141 44/110/141 79/112/141
f 4/52/142 5/115/142 33/53/142
f 83/60/143 85/62/143 82/71/143
f 71/118/144 77/134/144 78/114/144
f 37/128/145 38/57/145 87/68/145
f 77/135/146 76/63/146 86/69/146
f 81/50/147 34/116/147 46/51/147
f 89/121/148 86/69/148 87/68/148
f 77/123/149 86/69/149 89/121/149
f 13/1/150 12/124/150 2/2/150
f 14/127/151 11/125/151 1/66/151
f 30/34/152 31/136/152 37/128/152
f 31/130/153 32/132/153 38/57/153
f 90/137/154 89/120/154 18/137/154
f 33/138/155 34/137/155 91/137/155
f 90/137/156 18/137/156 79/137/156
f 18/137/157 39/56/157 33/55/157
f 81/137/158 91/137/158 34/50/158
f 81/49/159 80/137/159 91/137/159
f 80/112/160 79/137/160 91/137/160
f 18/137/161 88/137/161 38/57/161
f 89/137/162 90/137/162 79/114/162
f 89/120/163 88/137/163 18/137/163
f 18/137/164 91/137/164 79/137/164
f 91/137/165 18/137/165 33/55/165
f 39/56/154 18/137/154 38/57/154
f 78/121/166 89/137/166 79/114/166
